<svg width="26" height="25" viewBox="0 0 26 25" fill="none" xmlns="http://www.w3.org/2000/svg">
<g clip-path="url(#clip0_1_3732)">
<path d="M15.4999 3.57495H10.9547V23.0156H15.4999V3.57495Z" fill="white"/>
<path d="M18.9088 3.1228H6.86401V16.9121H18.9088V3.1228Z" fill="white"/>
<path fill-rule="evenodd" clip-rule="evenodd" d="M13.3405 23.6323L13.3632 23.6324H13.3554L13.3405 23.6323ZM13.425 23.6324H13.4172L13.4398 23.6323L13.425 23.6324ZM13.3053 23.6321L13.3297 23.6322H13.3157L13.3053 23.6321ZM13.4646 23.6322H13.4506L13.475 23.6321L13.4646 23.6322ZM13.2741 23.6319L13.2904 23.632L13.2774 23.6319H13.2741ZM13.503 23.6319L13.4899 23.632L13.5063 23.6319H13.503ZM13.534 23.6315L13.5283 23.6316L13.5504 23.6313L13.534 23.6315ZM13.23 23.6313L13.252 23.6316L13.2463 23.6315L13.23 23.6313ZM13.5734 23.631L13.5601 23.6312L13.5873 23.6308L13.5734 23.631ZM13.1931 23.6308L13.2202 23.6312L13.2069 23.631L13.1931 23.6308ZM13.6131 23.6303L13.5952 23.6306L13.6203 23.6301L13.6131 23.6303ZM13.1601 23.6301L13.1852 23.6306L13.1672 23.6303L13.1601 23.6301ZM13.1193 23.6293L13.1415 23.6298L13.1376 23.6297L13.1193 23.6293ZM13.6428 23.6297L13.6388 23.6298L13.6611 23.6293L13.6428 23.6297ZM13.0805 23.6283L13.111 23.6291L13.0987 23.6288L13.0805 23.6283ZM13.6817 23.6288L13.6693 23.6291L13.6998 23.6283L13.6817 23.6288ZM13.7221 23.6277L13.7023 23.6283L13.7335 23.6274L13.7221 23.6277ZM13.0469 23.6274L13.0781 23.6283L13.0582 23.6277L13.0469 23.6274ZM13.0223 23.6266L13.0445 23.6273L13.0236 23.6266L13.0044 23.626L13.0223 23.6266ZM13.7568 23.6266L13.7358 23.6273L13.758 23.6266L13.7759 23.626L13.7568 23.6266ZM13.7894 23.6256L13.7784 23.626L13.8124 23.6248L13.7894 23.6256ZM12.9679 23.6248L13.002 23.626L12.9909 23.6256L12.9679 23.6248ZM12.9342 23.6235L12.97 23.6248L12.9501 23.6241L12.9342 23.6235ZM13.8302 23.6241L13.8104 23.6248L13.8462 23.6235L13.8302 23.6241ZM12.9018 23.6221L12.9368 23.6236L12.9094 23.6225L12.9018 23.6221ZM13.871 23.6225L13.8436 23.6236L13.8786 23.6221L13.871 23.6225ZM12.8554 23.6201L12.8929 23.6218L12.8837 23.6215L12.8554 23.6201ZM13.8966 23.6215L13.8874 23.6218L13.925 23.6201L13.8966 23.6215ZM12.8222 23.6186L12.8611 23.6203L12.8427 23.6195L12.8222 23.6186ZM13.9376 23.6195L13.9192 23.6203L13.9582 23.6186L13.9376 23.6195ZM12.7898 23.6169L12.829 23.6188L12.8014 23.6176L12.7898 23.6169ZM13.9789 23.6176L13.9513 23.6188L13.9906 23.6169L13.9789 23.6176ZM14.0115 23.6158L13.9757 23.6177L14.0075 23.616L14.0448 23.614L14.0115 23.6158ZM12.7729 23.616L12.8046 23.6177L12.7688 23.6158L12.7355 23.614L12.7729 23.616ZM14.0447 23.6139L14.0289 23.6148L14.069 23.6126L14.0447 23.6139ZM12.7113 23.6126L12.7514 23.6148L12.7356 23.6139L12.7113 23.6126ZM12.6793 23.6106L12.7193 23.613L12.6943 23.6116L12.6793 23.6106ZM14.086 23.6116L14.061 23.613L14.101 23.6106L14.086 23.6116ZM12.6584 23.6093L12.6945 23.6116L12.6609 23.6095L12.6271 23.6073L12.6584 23.6093ZM14.1194 23.6095L14.0858 23.6116L14.1219 23.6093L14.1532 23.6073L14.1194 23.6095ZM14.1517 23.6074L14.1397 23.6082L14.1779 23.6056L14.1517 23.6074ZM12.6024 23.6056L12.6407 23.6082L12.6286 23.6074L12.6024 23.6056ZM12.5706 23.6034L12.6082 23.6061L12.5876 23.6047L12.5706 23.6034ZM14.1927 23.6047L14.1722 23.6061L14.2097 23.6034L14.1927 23.6047ZM12.5396 23.6012L12.574 23.6037L12.5473 23.6018L12.5396 23.6012ZM14.2331 23.6018L14.2063 23.6037L14.2408 23.6012L14.2331 23.6018ZM12.4978 23.598L12.528 23.6003L12.5207 23.5998L12.4978 23.598ZM14.2596 23.5998L14.2523 23.6003L14.2825 23.598L14.2596 23.5998ZM14.2994 23.5968L14.285 23.5978L14.3157 23.5954L14.2994 23.5968ZM12.4646 23.5954L12.4954 23.5978L12.4809 23.5968L12.4646 23.5954ZM12.4337 23.5929L12.4598 23.595L12.4414 23.5935L12.4337 23.5929ZM14.3389 23.5935L14.3205 23.595L14.3466 23.5929L14.3389 23.5935ZM14.4069 23.5877L14.3997 23.5883L14.4176 23.5867L14.4069 23.5877ZM12.3627 23.5867L12.3806 23.5883L12.3735 23.5877L12.3627 23.5867ZM12.3307 23.5838L12.344 23.5851L12.3357 23.5843L12.3307 23.5838ZM14.4446 23.5843L14.4363 23.5851L14.4497 23.5838L14.4446 23.5843ZM11.5875 23.4679C6.15818 22.6191 2 17.9401 2 12.3027C2 6.06457 7.09158 1 13.363 1C19.6343 1 24.7259 6.06457 24.7259 12.3027C24.7259 17.9401 20.5677 22.6191 15.1384 23.4679V15.5699H17.7861L18.2899 12.3027H15.1384V10.1825C15.1384 9.28866 15.5787 8.41739 16.9902 8.41739H18.423V5.63587C18.423 5.63587 17.1227 5.41511 15.8795 5.41511C13.2839 5.41511 11.5875 6.97983 11.5875 9.81256V12.3027H8.70237V15.5699H11.5875V23.4679Z" fill="black"/>
<path d="M13 23.8986C19.5149 23.8986 24.7963 18.6452 24.7963 12.1649C24.7963 5.68452 19.5149 0.431152 13 0.431152C6.48512 0.431152 1.20374 5.68452 1.20374 12.1649C1.20374 18.6452 6.48512 23.8986 13 23.8986Z" stroke="white"/>
</g>
<defs>
<clipPath id="clip0_1_3732">
<rect width="26" height="25" fill="white"/>
</clipPath>
</defs>
</svg>
