<svg width="26" height="26" viewBox="0 0 26 26" fill="none" xmlns="http://www.w3.org/2000/svg">
<g clip-path="url(#clip0_1_3700)">
<path d="M20.0251 5.34131H5.64038V19.9611H20.0251V5.34131Z" fill="white" stroke="#979797"/>
<path fill-rule="evenodd" clip-rule="evenodd" d="M12.7548 1C19.2424 1 24.5096 6.26716 24.5096 12.7548C24.5096 19.2424 19.2424 24.5096 12.7548 24.5096C6.26716 24.5096 1 19.2424 1 12.7548C1 6.26716 6.26716 1 12.7548 1ZM12.7548 5.40805C10.7596 5.40805 10.5093 5.4165 9.72573 5.45226C8.94376 5.48794 8.4097 5.61215 7.94235 5.79375C7.45926 5.98151 7.04954 6.23272 6.64111 6.64115C6.23267 7.04958 5.98146 7.4593 5.7937 7.9424C5.6121 8.4097 5.48794 8.94376 5.45222 9.72573C5.41649 10.5093 5.40805 10.7596 5.40805 12.7548C5.40805 14.75 5.41649 15.0002 5.45222 15.7839C5.48794 16.5658 5.6121 17.0999 5.7937 17.5672C5.98146 18.0503 6.23267 18.46 6.64111 18.8685C7.04954 19.2769 7.45926 19.5281 7.94235 19.7159C8.4097 19.8974 8.94376 20.0216 9.72573 20.0573C10.5093 20.0931 10.7596 20.1015 12.7548 20.1015C14.75 20.1015 15.0002 20.0931 15.7839 20.0573C16.5658 20.0216 17.0999 19.8974 17.5672 19.7159C18.0503 19.5281 18.46 19.2769 18.8685 18.8685C19.2769 18.46 19.5281 18.0503 19.7159 17.5672C19.8974 17.0999 20.0216 16.5658 20.0573 15.7839C20.0931 15.0002 20.1015 14.75 20.1015 12.7548C20.1015 10.7596 20.0931 10.5093 20.0573 9.72573C20.0216 8.94376 19.8974 8.4097 19.7159 7.9424C19.5281 7.4593 19.2769 7.04958 18.8685 6.64115C18.46 6.23272 18.0503 5.98151 17.5672 5.79375C17.0999 5.61215 16.5658 5.48794 15.7839 5.45226C15.0002 5.4165 14.75 5.40805 12.7548 5.40805ZM12.7548 6.73179C14.7165 6.73179 14.9488 6.73928 15.7235 6.77463C16.4398 6.80733 16.8288 6.92699 17.0877 7.02759C17.4306 7.16084 17.6754 7.32008 17.9324 7.57717C18.1895 7.83422 18.3487 8.079 18.482 8.42191C18.5826 8.68079 18.7023 9.06975 18.7349 9.78606C18.7703 10.5608 18.7778 10.7931 18.7778 12.7548C18.7778 14.7165 18.7703 14.9488 18.7349 15.7235C18.7023 16.4398 18.5826 16.8288 18.482 17.0877C18.3487 17.4306 18.1895 17.6754 17.9324 17.9324C17.6754 18.1895 17.4306 18.3487 17.0877 18.482C16.8288 18.5826 16.4398 18.7023 15.7235 18.7349C14.9489 18.7703 14.7166 18.7778 12.7548 18.7778C10.793 18.7778 10.5607 18.7703 9.78606 18.7349C9.06975 18.7023 8.68079 18.5826 8.42191 18.482C8.07896 18.3487 7.83422 18.1895 7.57713 17.9324C7.32004 17.6754 7.16084 17.4306 7.02759 17.0877C6.92699 16.8288 6.80728 16.4398 6.77459 15.7235C6.73923 14.9488 6.73179 14.7165 6.73179 12.7548C6.73179 10.7931 6.73923 10.5608 6.77459 9.78606C6.80728 9.06975 6.92699 8.68079 7.02759 8.42191C7.16084 8.079 7.32004 7.83422 7.57713 7.57717C7.83422 7.32008 8.07896 7.16084 8.42191 7.02759C8.68079 6.92699 9.06975 6.80733 9.78606 6.77463C10.5608 6.73928 10.7931 6.73179 12.7548 6.73179ZM12.7548 8.98214C10.6712 8.98214 8.98214 10.6712 8.98214 12.7548C8.98214 14.8384 10.6712 16.5274 12.7548 16.5274C14.8384 16.5274 16.5274 14.8384 16.5274 12.7548C16.5274 10.6712 14.8384 8.98214 12.7548 8.98214ZM12.7548 15.2037C11.4023 15.2037 10.3059 14.1073 10.3059 12.7548C10.3059 11.4023 11.4023 10.3059 12.7548 10.3059C14.1073 10.3059 15.2037 11.4023 15.2037 12.7548C15.2037 14.1073 14.1073 15.2037 12.7548 15.2037ZM17.5581 8.8331C17.5581 9.32 17.1634 9.71466 16.6765 9.71466C16.1896 9.71466 15.7949 9.32 15.7949 8.8331C15.7949 8.34619 16.1896 7.95149 16.6765 7.95149C17.1634 7.95149 17.5581 8.34619 17.5581 8.8331Z" fill="black"/>
<path d="M12.9503 24.8544C19.6898 24.8544 25.1533 19.3909 25.1533 12.6513C25.1533 5.91174 19.6898 0.448242 12.9503 0.448242C6.21069 0.448242 0.747192 5.91174 0.747192 12.6513C0.747192 19.3909 6.21069 24.8544 12.9503 24.8544Z" stroke="white"/>
</g>
<defs>
<clipPath id="clip0_1_3700">
<rect width="26" height="26" fill="white"/>
</clipPath>
</defs>
</svg>
