<svg width="281" height="12" viewBox="0 0 281 12" fill="none" xmlns="http://www.w3.org/2000/svg">
<path fill-rule="evenodd" clip-rule="evenodd" d="M142.291 6.26387L142.916 6.37921C142.837 6.20651 142.955 5.91725 142.955 5.91725C142.485 5.99404 142.369 6.13852 142.369 6.13852L141.705 6.15764L142.291 6.26387ZM167.888 7.51559C167.81 7.47704 167.692 7.44851 167.495 7.44851C167.301 7.44851 167.106 7.49616 167.106 7.56385C167.106 7.63153 167.301 7.67919 167.495 7.67919C167.729 7.67919 167.927 7.63153 167.927 7.56385C167.925 7.54503 167.888 7.53471 167.888 7.51559ZM167.872 7.06365C167.881 7.07184 167.888 7.08216 167.888 7.09188C167.884 7.14074 167.76 7.18415 167.574 7.20084V7.34289C167.792 7.34835 167.991 7.37597 168.123 7.41907C168.248 7.46065 168.316 7.51134 168.316 7.56355C168.316 7.66735 168.076 7.75112 167.726 7.77722C168.692 7.75871 169.295 7.73716 169.295 7.73716C168.356 7.6886 168.902 7.55414 168.902 7.55414C169.333 7.46703 170.153 7.39934 170.153 7.39934C169.177 7.37021 168.63 7.17807 168.393 7.06274H167.872V7.06365ZM167.38 7.78299C167.006 7.76782 166.715 7.67767 166.715 7.56385C166.715 7.45489 166.984 7.36717 167.34 7.34714V7.2057C167.122 7.1972 166.948 7.15501 166.912 7.10098L166.909 7.10189C166.52 7.13012 166.166 7.13012 166.166 7.13012C166.089 7.17838 166.245 7.19781 166.245 7.19781C167.065 7.34228 166.52 7.47704 166.52 7.47704C166.129 7.56385 165.933 7.56385 165.933 7.56385C165.543 7.59299 164.605 7.79543 164.605 7.79543C165.649 7.80333 166.606 7.79544 167.38 7.78299ZM156.672 6.89004C156.742 6.89004 156.811 6.88457 156.868 6.87456L157.647 6.95772C157.647 7.01509 157.804 7.06395 158.001 7.06395C158.121 7.06395 158.228 7.04453 158.291 7.01721L158.952 7.04119C158.996 7.08945 159.13 7.12193 159.289 7.12193C159.47 7.12193 159.652 7.08095 159.675 7.02176L160.228 6.95742C160.293 6.98139 160.391 6.99657 160.503 6.99657C160.696 6.99657 160.893 6.94831 160.893 6.89034L161.245 6.74677C161.91 6.75922 162.578 6.75618 163.239 6.73676C164.293 6.60139 165.154 6.5246 165.154 6.5246C164.839 6.58196 164.526 6.63083 164.33 6.6885C164.133 6.73645 163.951 6.78805 163.783 6.84238C163.496 6.89337 163.334 6.97715 163.352 7.06426C163.382 7.11919 163.462 7.172 163.585 7.21814C163.782 7.27581 164.057 7.30525 164.057 7.30525L164.488 7.40147C164.134 7.46915 163.352 7.5165 163.352 7.5165C162.921 7.55596 162.338 7.48827 162.338 7.48827C160.969 7.41148 160.502 7.56506 160.502 7.56506C160.227 7.64185 159.718 7.65217 159.718 7.65217L159.952 7.73898C159.444 7.77753 159.173 7.72927 159.173 7.72927C159.132 7.56537 159.484 7.40177 159.484 7.40177C159.328 7.14196 157.137 7.18961 157.137 7.18961L156.593 7.06365L156.475 7.03451L155.225 6.74556C155.225 6.83237 155.069 6.95772 154.875 7.06395C154.718 7.15015 154.522 7.22755 154.522 7.22755L154.054 7.16927C154.142 7.1374 154.208 7.10159 154.247 7.06395C154.636 6.83237 154.911 6.50487 154.911 6.50487C155.145 6.50487 155.343 6.51488 155.497 6.52429C155.615 6.54341 155.694 6.55343 155.694 6.55343C155.785 6.56406 155.884 6.57437 155.991 6.58469L156.422 6.73554C156.381 6.75345 156.36 6.77348 156.36 6.79382C156.359 6.85149 156.475 6.89004 156.672 6.89004ZM161.035 6.74009L160.807 6.81992C160.743 6.79291 160.627 6.77591 160.502 6.7747C160.305 6.7747 160.148 6.82235 160.148 6.89004C160.148 6.89914 160.152 6.90855 160.162 6.91675L159.663 6.97411C159.61 6.92889 159.45 6.88943 159.289 6.88943C159.096 6.88943 158.939 6.9471 158.939 7.00477L158.344 6.97957C158.35 6.97229 158.353 6.9647 158.353 6.95742C158.353 6.89975 158.194 6.84117 158.001 6.84117C157.853 6.84117 157.732 6.87334 157.679 6.91371L156.99 6.83692C157.013 6.82326 157.024 6.80869 157.023 6.79382C157.023 6.74556 156.866 6.69791 156.669 6.69791C156.639 6.69761 156.608 6.69882 156.579 6.70185L156.395 6.62021H156.392C157.387 6.70033 158.621 6.75557 158.621 6.75557H159.482L159.757 6.64934C160.111 6.69821 160.571 6.72613 161.035 6.74009ZM156.403 5.09532C156.435 5.10503 156.465 5.11414 156.497 5.12233L156.448 5.14419C156.422 5.13994 156.391 5.13751 156.36 5.1369C156.204 5.1369 156.086 5.17545 156.086 5.2143L156.049 5.20459L155.733 5.11778L155.619 5.08895L154.915 4.90592C154.093 4.6364 152.843 4.90592 152.843 4.90592L152.65 4.86738C153.311 4.77086 152.729 4.64581 152.729 4.64581L154.017 3.82691L153.663 3.72098C154.291 3.40289 152.963 3.39348 152.963 3.39348C152.57 3.10453 151.867 3.2396 151.867 3.2396C151.634 2.96005 150.772 3.10453 150.772 3.10453C150.461 2.9121 149.718 3.02744 149.718 3.02744L149.754 2.57458L148.897 2.58399L147.957 2.57458L148.036 3.03685C147.1 2.92151 146.94 3.15249 146.94 3.15249C145.848 2.9983 145.848 3.29696 145.848 3.29696C144.947 3.22928 144.987 3.44144 144.987 3.44144C143.776 3.47027 143.933 3.73039 143.933 3.73039L144.869 4.52015C144.636 4.66463 141.861 5.50265 141.861 5.50265L140.688 5.41614L140.609 5.36818C140.883 5.40673 141.078 5.38731 141.078 5.38731C140.963 5.29079 141.116 5.09835 141.116 5.09835C141.47 4.7229 140.844 4.58784 140.844 4.58784C140.883 4.43365 140.453 4.25093 140.453 4.25093C141.039 4.06791 140.179 3.88488 140.179 3.88488L140.061 3.83632L140.023 3.44144C139.867 3.44144 139.788 3.39318 139.788 3.39318C139.554 3.22928 139.124 3.33551 139.124 3.33551C138.811 3.1625 138.303 3.29696 138.303 3.29696C137.872 3.15249 137.442 3.29696 137.442 3.29696L137.091 3.01742L135.919 3.13276L136.31 3.44113C135.449 3.39257 135.724 3.60473 135.724 3.60473C134.98 3.61445 135.332 3.77804 135.332 3.77804C134.629 3.79747 134.903 3.9902 134.903 3.9902L135.683 4.30799C135.058 4.48099 135.645 4.59694 135.645 4.59694C135.841 4.68375 136.076 4.68375 136.076 4.68375C135.724 4.94417 136.193 5.21369 136.193 5.21369C135.685 5.35817 134.942 5.4735 134.278 5.56001C133.302 5.67595 132.441 5.73362 132.441 5.73362C130.917 5.82073 127.908 6.06112 127.908 6.06112C126.853 6.1282 125.173 6.25355 125.173 6.25355C123.063 6.40805 122.516 6.24445 122.516 6.24445C122.007 6.16675 122.399 5.9646 122.399 5.9646C122.906 5.7142 123.963 5.65623 123.963 5.65623C124.705 5.77247 124.977 5.83925 124.977 5.83925C125.447 5.9555 126.268 5.94548 126.268 5.94548L126.307 5.90693C126.658 5.91695 126.894 5.88781 126.894 5.88781C126.658 5.83014 126.658 5.76246 126.658 5.76246C126.658 5.7145 126.385 5.63771 126.385 5.63771L131.817 5.57974C132.014 5.57094 132.169 5.57094 132.325 5.56062C134.2 5.47411 134.631 5.36818 134.631 5.36818C135.92 5.11717 135.373 4.70317 135.373 4.70317C134.669 4.29888 133.302 4.27915 133.302 4.27915C132.247 4.21177 131.466 4.25062 131.466 4.25062C130.88 4.26034 129.669 4.18324 129.669 4.18324C129.629 4.24061 130.137 4.42363 130.137 4.42363C129.782 4.43152 129.431 4.4039 129.161 4.34684C128.535 4.20236 127.519 4.26975 127.519 4.26975C127.675 4.34684 128.615 4.53988 128.615 4.53988C128.067 4.54929 126.583 4.3954 126.583 4.3954C126.857 4.71349 128.342 4.93476 128.342 4.93476C130.1 5.11778 131.623 4.92535 131.623 4.92535C132.366 4.81001 133.109 4.74202 133.109 4.74202C133.219 4.72958 133.34 4.7232 133.462 4.7232C133.844 4.7232 134.18 4.78664 134.281 4.87709C134.203 5.20459 133.226 5.2143 133.226 5.2143C130.412 5.35847 126.66 5.26226 126.66 5.26226C126.933 5.17545 126.972 4.95388 126.972 4.95388L126.66 4.9733C125.019 4.93476 124.588 5.02156 124.588 5.02156C124.002 5.10837 123.729 5.29139 123.729 5.29139C122.986 5.36849 122.4 5.4644 121.969 5.56092C120.876 5.82164 120.759 6.10999 120.759 6.10999C120.68 6.45691 121.462 6.50547 121.462 6.50547C120.759 6.84177 121.813 6.96743 121.813 6.96743C122.282 6.88123 122.476 6.78441 122.476 6.78441C123.415 6.61171 126.151 6.46663 126.151 6.46663C125.603 6.57316 125.289 6.89034 125.289 6.89034C124.821 6.92889 124.039 6.8612 124.039 6.8612C123.609 6.8521 123.609 6.9389 123.609 6.9389L123.414 7.05394L123.14 7.2664C121.459 7.24698 121.694 7.48736 121.694 7.48736L121.459 8.13265C121.851 8.37334 122.475 8.33509 122.475 8.33509V8.0944H122.905C123.414 8.35421 124.195 8.41219 124.195 8.41219H124.431C124.703 8.39307 124.821 8.48989 124.821 8.48989L125.094 8.49869L125.133 8.33509L125.444 8.32599C125.641 8.34541 125.757 8.4222 125.757 8.4222H125.991C126.068 8.38335 126.109 8.27773 126.109 8.27773C126.422 8.22917 126.342 8.05646 126.342 8.05646C126.969 8.02732 127.632 8.0856 127.632 8.0856L127.594 8.22917C128.062 8.42221 128.65 8.45104 128.65 8.45104C129.041 8.47957 129.626 8.49869 130.33 8.50871C131.542 8.52783 133.065 8.51781 134.473 8.50871C136 8.48959 137.524 8.46075 139.045 8.4216C139.202 8.47927 139.279 8.47016 139.279 8.47016C139.943 8.52752 140.685 8.35391 140.685 8.35391L140.453 8.47016C140.96 8.46014 141.508 8.37334 141.508 8.37334C141.644 8.41917 141.836 8.45286 142.055 8.47016L142.173 8.44102L142.329 8.49839C142.641 8.45984 142.837 8.32569 142.837 8.32569C143.19 8.40248 143.698 8.38305 143.698 8.38305L143.855 8.44072L143.97 8.39216C144.202 8.43161 144.633 8.47927 144.633 8.47927C145.105 8.33479 144.909 8.12324 144.909 8.12324L145.026 8.17089L145.142 8.05555C145.375 8.11292 145.77 8.11292 145.77 8.11292C145.026 8.18971 145.455 8.32538 145.455 8.32538C145.547 8.36332 145.684 8.39337 145.848 8.41128C146.104 8.40369 146.343 8.44618 146.394 8.5084C146.981 8.57609 147.333 8.42129 147.333 8.42129L147.412 8.30596C147.293 8.23827 147.293 8.13234 147.293 8.13234L147.412 8.2574L147.605 8.28653L148.934 8.54634L150.069 8.31506C150.693 8.42129 151.554 8.42129 151.554 8.42129C151.866 8.42129 151.633 8.32538 151.633 8.32538C152.65 8.52753 154.172 8.47927 154.172 8.47927C154.405 8.43161 154.25 8.40248 154.25 8.40248C154.525 8.37334 154.993 8.47016 154.993 8.47016C155.383 8.53693 155.969 8.47927 155.969 8.47927C155.932 8.43161 155.736 8.4216 155.736 8.4216C156.011 8.4216 155.854 8.32569 155.854 8.32569C156.125 8.33479 156.362 8.41189 156.362 8.41189C156.594 8.48928 157.026 8.47016 157.026 8.47016L157.063 8.4216C157.338 8.47016 157.96 8.47927 157.96 8.47927C158.12 8.44072 158.001 8.38305 158.001 8.38305C160.814 8.59521 164.994 8.55575 164.994 8.55575C170.428 8.54695 171.171 8.28653 171.171 8.28653C171.366 8.22826 171.248 8.16148 171.248 8.16148V8.08469C171.523 8.04523 171.953 8.07498 171.953 8.07498L171.56 8.27712L171.445 8.34481C172.381 8.60462 173.787 8.31567 173.787 8.31567V8.22886C174.063 8.20033 174.296 8.12324 174.296 8.12324L174.924 8.16179C175.002 8.2489 174.766 8.34481 174.766 8.34481C175.743 8.41188 176.093 8.16179 176.093 8.16179L175.588 7.51589C174.806 7.29463 173.398 7.33287 173.398 7.33287L173.359 7.16897C173.28 7.1116 173.009 7.07306 172.773 7.06365L172.47 7.03694L172.187 7.06365C171.754 7.07275 171.129 7.07276 171.129 7.07276V7.06365L171.208 6.84147V6.59168L171.129 6.50457L171.953 6.5337C172.577 6.60048 174.024 6.60048 174.024 6.60048C174.492 6.64904 174.492 6.76438 174.492 6.76438L174.335 6.89975C175.664 6.87061 175.508 6.50457 175.508 6.50457C176.444 6.31153 176.21 5.79159 176.21 5.79159C176.091 5.66654 175.898 5.58915 175.777 5.56001L175.742 5.55121C175.742 5.2231 174.412 5.07863 174.412 5.07863C174.179 5.03037 173.904 5.03037 173.904 5.03037C173.593 5.01155 173.162 4.88589 173.162 4.88589C172.654 5.11687 173.083 5.29018 173.083 5.29018C172.301 5.25163 168.391 5.44437 168.391 5.44437C167.455 5.50234 165.893 5.37699 165.893 5.37699C164.914 5.24192 165.073 5.06891 165.073 5.06891C165.266 4.78937 166.204 4.82792 166.204 4.82792H166.479C167.3 4.78937 167.886 4.86646 167.886 4.86646C169.527 5.0589 172.456 4.86646 172.456 4.86646C173.863 4.7314 174.255 4.27885 174.255 4.27885C173.317 4.49101 172.419 4.45246 172.419 4.45246C172.221 4.46218 172.025 4.47523 171.833 4.49101C171.99 4.32711 172.769 4.25002 172.769 4.25002C171.754 4.14409 170.661 4.32711 170.661 4.32711C170.114 4.47158 168.901 4.51985 168.901 4.51985C169.798 4.43304 170.269 4.19235 170.269 4.19235C169.683 4.27885 168.629 4.25942 168.629 4.25942C167.026 4.18233 165.267 4.53867 165.267 4.53867C163.664 4.90471 164.446 5.3093 164.446 5.3093C164.643 5.42464 165.111 5.51175 165.618 5.55971C166.362 5.64682 167.14 5.66594 167.14 5.66594C168.822 5.7142 172.263 5.61768 172.263 5.61768C172.574 5.59825 172.927 5.59825 172.927 5.59825C172.3 5.7142 172.184 5.97431 172.184 5.97431C172.808 5.91695 173.276 5.91695 173.276 5.91695L173.239 5.9555C173.983 5.92636 174.605 5.9555 174.605 5.9555C174.998 5.9646 175.077 5.8787 175.077 5.8787C175.545 6.05141 174.605 6.24475 174.605 6.24475C174.06 6.37921 172.849 6.27298 172.849 6.27298C172.184 6.19619 170.463 6.16675 170.463 6.16675C170.151 6.07084 166.595 5.89753 166.595 5.89753C166.398 5.81042 166.048 5.84896 166.048 5.84896L165.734 5.83925C165.422 5.65623 164.719 5.76246 164.719 5.76246C164.212 5.74334 163.39 5.628 162.92 5.56001C162.686 5.53148 162.569 5.50265 162.569 5.50265C164.445 4.99212 164.326 4.44336 164.326 4.44336C164.094 3.6533 161.476 3.52825 161.476 3.52825C161.085 3.29696 159.835 3.27784 159.835 3.27784L159.757 3.3261L159.872 3.39348C159.835 3.44174 160.068 3.52855 160.068 3.52855L159.561 3.55708L156.395 3.10453C155.615 3.05658 155.927 3.21987 155.927 3.21987L156.083 3.27784L158.819 3.80748C158.545 3.94225 157.609 4.11586 157.609 4.11586L157.256 4.13498L156.825 4.25062L156.865 4.40481C156.668 4.44336 156.237 4.44336 156.237 4.44336L156.2 4.53988C156.472 4.6364 157.254 4.6364 157.254 4.6364L157.879 4.79028C158.076 4.81942 158.232 4.78087 158.232 4.78087L158.778 4.62668L159.52 4.54018C159.717 4.56902 160.071 4.57873 160.071 4.57873C159.562 4.62729 159.016 4.81001 159.016 4.81001C158.585 4.78087 157.88 4.81942 157.88 4.81942L157.802 4.92535L157.78 4.95084L157.609 4.92535C157.334 4.64611 156.474 4.81942 156.474 4.81942C156.188 4.8953 156.158 5.01125 156.403 5.09532ZM156.421 5.29686C156.515 5.28623 156.592 5.25315 156.592 5.21369C156.592 5.20246 156.582 5.19154 156.562 5.18152L156.615 5.14904C156.738 5.17363 156.891 5.18668 157.049 5.18668C157.451 5.18334 157.608 5.04008 157.608 5.04008H157.705L157.608 5.15542C157.215 5.21339 156.865 5.40582 156.865 5.40582L156.421 5.29686ZM156.666 5.02156C156.456 4.91442 156.905 4.86707 156.905 4.86707C157.451 4.84765 157.336 5.02096 157.336 5.02096C157.189 5.06618 157.071 5.08318 156.974 5.085C156.76 5.08925 156.668 5.02247 156.666 5.02156ZM135.332 7.05363C135.02 7.12132 134.472 7.21753 133.769 7.22725L133.456 7.35169L134.198 7.40025L134.355 7.41937L135.02 7.46794C135.02 7.46794 135.058 7.36171 135.566 7.38083C135.566 7.38083 135.919 7.14924 137.325 7.22694C137.325 7.22694 137.56 7.20752 137.872 7.24606C137.99 7.26549 138.107 7.28491 138.223 7.31314L138.066 7.18809C138.066 7.18809 138.223 7.13042 138.613 7.14924C138.613 7.14924 138.457 7.11069 138.34 7.05333C138.175 6.99687 138.08 6.9298 138.066 6.86029C138.054 6.79109 138.534 6.81264 139.005 6.83206V6.72583H139.277L138.769 6.64904C138.769 6.64904 137.479 7.00477 135.055 6.83206C134.576 6.79867 134.117 6.75011 133.689 6.68759C133.26 6.62506 134.159 6.97654 135.644 6.96683C135.645 6.96683 135.528 7.00537 135.332 7.05363ZM129.041 7.05363C129.822 7.1113 131.191 7.14074 131.191 7.14074C131.073 7.16897 130.956 7.19811 130.839 7.21754C130.41 7.30434 130.058 7.32377 130.058 7.32377C129.824 7.41968 129.943 7.5939 129.943 7.5939C130.058 7.63244 130.41 7.66067 130.723 7.68981C131.115 7.72836 131.504 7.7575 131.504 7.7575C131.027 7.78147 130.536 7.78147 130.058 7.7575C129.627 7.74778 129.356 7.71834 129.356 7.71834L129.551 7.62213C129.395 7.37142 127.87 7.34289 127.87 7.34289L127.949 7.22755C128.143 7.16927 128.34 7.1025 128.418 7.05394C128.467 7.03633 128.505 7.01691 128.535 6.99657C128.613 7.016 128.808 7.03512 129.004 7.05394H129.041V7.05363ZM156.868 7.8531C156.749 7.87253 156.672 7.89196 156.672 7.9299C156.672 7.9299 156.749 7.98756 157.258 8.02611C157.258 8.02611 157.336 7.92049 157.217 7.80485C157.216 7.80485 157.023 7.82397 156.868 7.8531ZM139.045 7.67919L139.319 7.66007C139.319 7.66007 139.045 7.6024 139.007 7.56385C139.007 7.56385 139.007 7.48706 138.656 7.41937L138.694 7.48706V7.58327L138.811 7.61242V7.6892L139.045 7.67919ZM140.296 8.01701L140.336 8.16148L140.844 8.02611C140.762 8.02641 140.685 8.01549 140.647 7.99758C140.453 7.95903 140.336 7.90167 140.336 7.90167L140.296 8.01701ZM142.062 7.05728C142.36 7.04908 142.609 7.05394 142.749 7.09582C142.746 7.03451 142.855 6.9729 143.227 6.95742C143.227 6.95742 142.406 6.91857 141.663 6.85088C141.195 6.81233 140.726 6.76407 140.57 6.7064L140.218 6.73554L139.943 6.76407V6.79321C139.943 6.79321 140.685 6.82144 141.077 6.89944V6.85999C141.077 6.86029 141.788 6.89337 142.062 7.05728ZM144.125 7.4388C144.125 7.41937 144.164 7.40025 144.164 7.37111L144.75 7.52561C144.75 7.52561 144.865 7.62182 144.632 7.67949C144.632 7.67949 144.518 7.65126 144.361 7.63184C144.263 7.6197 144.156 7.61332 144.046 7.61272L144.009 7.48736C144.009 7.48706 144.088 7.46794 144.125 7.4388ZM96.605 2.1794C96.605 2.1794 102.428 2.91149 103.131 3.05597C103.874 3.20044 103.482 3.29696 103.482 3.29696C103.482 3.29696 103.209 3.39318 102.545 3.43172C101.879 3.46025 102.077 3.59532 102.077 3.59532L101.999 7.01509C104.734 7.67949 107.314 7.32346 107.314 7.32346C108.291 7.24667 108.175 7.03451 108.175 7.03451C108.175 7.03451 108.371 3.8175 108.291 3.71127C108.213 3.59593 107.823 3.59593 107.823 3.59593C107.823 3.59593 105.4 3.21987 105.009 3.15279C104.578 3.08571 105.047 2.97979 105.047 2.97979C105.047 2.97979 109.151 2.27653 109.739 2.14176C110.325 2.01641 110.794 2.0932 110.794 2.0932C110.794 2.0932 117.554 3.02774 118.335 3.17222C119.117 3.31669 118.727 3.36465 118.727 3.36465L116.812 3.83662C116.42 3.93314 116.616 4.01964 116.616 4.01964L116.537 7.17929C116.03 7.98817 110.87 8.10442 110.87 8.10442C104.656 8.12354 101.765 7.46854 101.765 7.46854C99.3026 7.09279 96.4501 7.3526 96.4501 7.3526C92.8167 7.66067 92.5419 8.23888 92.5419 8.23888C92.4237 8.65349 94.3004 8.85563 94.3004 8.85563C96.6066 9.22168 99.9669 8.99009 99.9669 8.99009C102.819 8.7497 107.236 8.38335 107.236 8.38335C110.009 8.23888 112.198 8.35422 112.198 8.35422C114.699 8.48989 115.676 8.77884 115.676 8.77884C117.279 9.18313 117.162 9.70306 117.162 9.70306C117.279 10.8403 111.612 11.2252 111.612 11.2252C109.072 11.3506 108.369 11.2061 108.369 11.2061C106.571 11.1093 108.486 11.0616 108.486 11.0616C108.486 11.0616 105.202 11.1093 108.759 11.0707C112.316 11.0422 112.708 10.6188 112.708 10.6188C113.998 10.05 112.004 9.95377 112.004 9.95377C109.269 9.85785 106.3 10.4066 106.3 10.4066C99.6555 11.1384 94.615 10.5317 94.615 10.5317C89.4562 10.0403 90.1207 9.09632 90.1207 9.09632C90.2373 7.87314 93.3644 7.39176 93.3644 7.39176L93.1696 3.60595C93.0131 3.50943 92.6217 3.48089 92.6217 3.48089C92.6217 3.48089 90.472 3.26874 90.1207 3.1534C89.8077 3.03776 90.3155 2.9895 90.3155 2.9895L95.2794 2.18031C95.8623 1.97756 96.605 2.1794 96.605 2.1794ZM0.310927 1.6015C-0.431745 1.47645 0.389246 1.40907 0.389246 1.40907L7.85414 0.0602227H27.5883C31.8478 0.156439 31.4965 1.50498 31.4965 1.50498L31.4182 6.47512C24.501 6.80262 21.179 8.24798 21.179 8.24798C14.7298 7.79544 3.67124 8.19973 3.67124 8.19973C2.69386 8.21885 3.35821 8.03582 3.35821 8.03582C7.18819 6.37891 14.535 6.42747 14.535 6.42747C15.0093 6.42504 15.4741 6.42808 15.926 6.43536L15.9644 1.65188L0.310927 1.6015ZM10.1589 1.87103C11.6042 1.70743 11.3311 1.94842 11.3311 1.94842V4.71258C11.2146 5.8781 7.50122 6.51428 7.50122 6.51428C6.40722 6.88063 2.22592 7.30404 2.22592 7.30404C0.78047 7.4388 1.63976 7.09188 1.63976 7.09188C3.00689 6.59168 3.00689 6.23443 3.00689 6.23443V2.91149C3.00689 2.81528 3.1634 2.77673 3.1634 2.77673L10.1589 1.87103ZM16.5873 6.44902C20.0035 6.5337 22.5095 6.83206 22.5095 6.83206L22.4583 4.69498L22.4056 4.70469C22.3976 4.70226 19.6634 3.81264 16.6001 4.73747L16.5873 6.44902ZM22.4519 4.47827L22.4311 3.58197C21.385 3.82327 18.9462 4.22907 16.608 3.47786L16.6001 4.49253C19.1746 3.84846 21.4904 4.24971 22.4519 4.47827ZM22.4247 3.34826L22.3896 1.8519C22.6628 1.6015 21.2572 1.66888 21.2572 1.66888L16.624 1.65401L16.6128 3.18891C19.2337 4.25942 22.1564 3.42899 22.4247 3.34826ZM76.3598 1.00447C76.3598 1.00447 84.9572 0.320643 86.0512 0.253261C87.1835 0.18588 87.1069 0.320642 87.1069 0.320642C87.1069 0.320642 86.8737 6.35038 87.0686 6.56254C87.2634 6.7747 87.6547 6.71703 87.6547 6.71703C87.6547 6.71703 89.648 7.06395 90.0776 7.11161C90.5471 7.15987 90.3123 7.2752 90.3123 7.2752L85.4667 8.20033C85.4667 8.20033 77.572 7.34289 76.9475 7.24698C76.1666 7.11161 76.6744 7.03482 76.6744 7.03482L78.0816 6.68789C78.0816 6.68789 78.3147 1.7563 77.925 1.49618C77.5337 1.23576 76.2832 1.12983 76.2832 1.12983C76.0085 1.0236 76.3598 1.00447 76.3598 1.00447ZM66.7084 2.02552C66.9815 2.18911 67.6843 2.16058 67.6843 2.16058C70.8113 1.8522 72.062 1.12012 72.062 1.12012C72.843 0.397739 71.0063 0.205306 71.0063 0.205306C69.3644 -0.0356888 68.1538 0.156744 68.1538 0.156744C66.2771 0.407148 65.7693 0.889138 65.7693 0.889138C65.3013 1.52471 66.7084 2.02552 66.7084 2.02552ZM65.3013 2.35302C65.3013 2.35302 60.2209 3.12365 59.8295 3.26813C59.4383 3.41261 59.7529 3.48059 59.7529 3.48059C59.7529 3.48059 61.9409 3.8175 62.5271 3.87517C63.1515 3.92343 62.9168 4.00052 62.9168 4.00052L63.0733 6.50487C63.1515 6.57255 63.0733 6.74556 63.0733 6.74556C63.0733 6.74556 62.2124 6.91917 61.7445 7.01539C61.1982 7.13073 61.6263 7.24698 61.6263 7.24698L69.4826 8.21976C69.4826 8.21976 74.7962 7.27581 75.2658 7.22755C75.7337 7.17929 75.2658 7.08307 75.2658 7.08307C75.2658 7.08307 72.9596 6.75558 72.5698 6.70732C72.1801 6.65875 72.3366 6.56284 72.3366 6.56284C72.3366 6.56284 72.0236 4.08672 72.2584 3.87487C72.4532 3.67272 72.7263 3.7398 72.7263 3.7398C72.7263 3.7398 73.4291 3.69184 74.0552 3.59532C74.6413 3.49911 74.0951 3.4123 74.0951 3.4123C74.0951 3.4123 66.7867 2.46866 66.2404 2.35302C65.691 2.23737 65.3013 2.35302 65.3013 2.35302ZM32.9227 6.52368C32.9035 6.50456 33.528 7.97846 41.1878 8.21946L46.2683 7.20843C46.2683 7.20843 46.5414 7.09218 46.9327 7.18839L55.5301 8.21946L60.767 7.20843C60.767 7.20843 61.0018 7.09218 60.6105 6.97684L56.9754 6.37921V3.92282C56.9754 3.92282 56.9371 3.80748 57.2486 3.78836L58.6556 3.50912C58.6556 3.50912 58.8904 3.4126 58.4225 3.28755C57.9912 3.15279 49.4338 2.11263 49.4338 2.11263C49.4338 2.11263 49.1208 1.99729 48.3382 2.13175C48.3382 2.13175 38.9982 3.05657 35.3248 4.24091C35.3264 4.24091 32.3957 4.70317 32.9227 6.52368ZM40.2503 5.73423C40.4851 5.83955 38.6867 5.10776 39.5476 4.30829C39.5476 4.30829 39.6658 3.60534 42.9862 3.24901L47.4805 3.97138L47.4023 6.82235C47.4023 6.82235 46.8162 7.06365 45.3707 6.89975C45.3707 6.89975 41.6574 6.4472 40.2503 5.73423ZM255.622 2.42981C255.622 2.42981 250.543 3.19073 250.149 3.34492C249.76 3.48939 250.072 3.55677 250.072 3.55677C250.072 3.55677 252.261 3.89368 252.847 3.94225C253.472 3.99081 253.238 4.07701 253.238 4.07701L253.394 6.58135C253.472 6.64904 253.394 6.82174 253.394 6.82174C253.394 6.82174 252.532 6.98564 252.065 7.08247C251.519 7.1978 251.95 7.31314 251.95 7.31314L259.805 8.29564C259.805 8.29564 265.12 7.35169 265.588 7.29372C266.056 7.24607 265.588 7.14924 265.588 7.14924C265.588 7.14924 263.319 6.82174 262.892 6.77409C262.499 6.72583 262.656 6.62962 262.656 6.62962C262.656 6.62962 262.344 4.1541 262.577 3.94225C262.774 3.74982 263.048 3.80748 263.048 3.80748C263.048 3.80748 263.749 3.75922 264.377 3.66301C264.963 3.56679 264.414 3.49 264.414 3.49C264.414 3.49 257.106 2.54575 256.559 2.43011C256.052 2.31447 255.622 2.42981 255.622 2.42981ZM177.929 1.61091C176.718 1.44731 177.579 1.36991 177.579 1.36991L183.675 0.406844C183.986 0.339463 184.261 0.435981 184.261 0.435981L189.811 1.23545C189.811 1.23545 197.313 0.25296 197.821 0.17617C198.133 0.127606 198.407 0.195288 198.407 0.195288L204.741 1.06214L211.109 0.0796485C211.811 -0.0648272 212.007 0.0313898 212.007 0.0313898L219.472 1.1104C220.096 1.20662 219.822 1.23545 219.822 1.23545V6.22533C220.096 6.84117 222.208 7.08277 222.208 7.08277C222.794 7.19811 222.52 7.28522 222.52 7.28522L216.773 8.29624C211.811 7.88163 211.343 6.89004 211.343 6.89004V2.12143C211.225 1.95783 210.757 1.91928 210.757 1.91928L206.92 1.43729L206.95 3.55647H211.07L206.968 5.01367L206.994 6.76802L209.861 7.24606C210.25 7.36171 209.628 7.38083 209.628 7.38083L203.685 8.29564L194.853 7.13983C194.033 7.00446 194.658 6.92767 194.658 6.92767L196.572 6.62931V5.09744H192.367L192.383 7.06395L193.801 7.28492C194.232 7.40025 193.722 7.47704 193.722 7.47704L187.821 8.29564L180.122 7.29372C179.458 7.18749 180.159 7.10189 180.159 7.10189L182.348 6.79351V2.38185L178.127 1.63064L177.929 1.61091ZM206.391 1.37781C205.224 1.28857 205.404 1.46704 205.404 1.46704L205.483 3.40289V3.55708H206.423L206.391 1.37781ZM206.441 5.09805H205.483V6.51428C205.52 6.55282 205.99 6.60048 205.99 6.60048L206.462 6.67969L206.441 5.09805ZM192.366 4.82397L195.829 3.55677H196.571V2.12143C196.455 2.04464 196.024 1.96754 196.024 1.96754L192.344 1.49557L192.366 4.82397ZM191.814 1.46461C190.735 1.47038 190.673 1.65006 190.673 1.65006L190.591 6.79382C190.591 6.82235 190.944 6.84147 190.944 6.84147L191.851 6.98291L191.814 1.46461ZM223.251 6.52368C223.232 6.50456 223.856 7.97846 231.518 8.21946L236.596 7.20843C236.596 7.20843 236.871 7.09218 237.261 7.18839L245.859 8.21946L251.095 7.20843C251.095 7.20843 251.329 7.09218 250.939 6.97684L247.306 6.37921V3.92282C247.306 3.92282 247.269 3.80748 247.581 3.78836L248.987 3.50912C248.987 3.50912 249.221 3.4126 248.754 3.28755C248.323 3.15279 239.763 2.11263 239.763 2.11263C239.763 2.11263 239.452 1.99729 238.669 2.13175C238.669 2.13175 229.328 3.05657 225.655 4.24091C225.653 4.24091 222.724 4.70317 223.251 6.52368ZM230.578 5.73423C230.812 5.83955 229.016 5.10776 229.878 4.30829C229.878 4.30829 229.992 3.60534 233.314 3.24901L237.809 3.97138L237.73 6.82235C237.73 6.82235 237.144 7.06365 235.697 6.89975C235.697 6.89975 231.986 6.4472 230.578 5.73423ZM266.681 1.00447C266.681 1.00447 275.237 0.320643 276.374 0.253261C277.466 0.18588 277.428 0.320642 277.428 0.320642C277.428 0.320642 277.194 6.41806 277.387 6.63022C277.584 6.84147 277.973 6.79382 277.973 6.79382C277.973 6.79382 279.967 7.14074 280.398 7.18839C280.866 7.23665 280.631 7.35199 280.631 7.35199L275.788 8.27712C275.788 8.27712 267.892 7.41968 267.267 7.31405C266.485 7.1887 266.993 7.1025 266.993 7.1025L268.4 6.76499C268.4 6.76499 268.633 1.74688 268.244 1.48646C267.853 1.22635 266.604 1.13044 266.604 1.13044C266.33 1.01388 266.681 1.00447 266.681 1.00447ZM257.029 2.10261C257.304 2.26651 258.005 2.23737 258.005 2.23737C261.134 1.91928 262.383 1.1875 262.383 1.1875C263.163 0.474528 261.327 0.282098 261.327 0.282098C259.687 0.0316936 258.476 0.233532 258.476 0.233532C256.597 0.483936 256.093 0.965926 256.093 0.965926C255.622 1.6015 257.029 2.10261 257.029 2.10261Z" fill="black"/>
</svg>
