<svg width="284" height="70" viewBox="0 0 284 70" fill="none" xmlns="http://www.w3.org/2000/svg">
<path d="M83.5975 1.99736C67.2594 2.10583 53.8952 18.9674 53.8952 33.6747C53.8952 49.1515 63.6917 68.0309 83.5975 67.9696C103.503 67.9083 113.835 47.5831 113.835 33.6747C113.835 18.3117 99.9357 1.8889 83.5975 1.99736ZM83.5975 2.57423C97.2719 2.57423 100.961 16.5979 100.961 33.6747C100.961 56.2071 96.511 67.3235 83.5975 67.3023C70.6841 67.2812 66.4831 58.1829 66.4831 33.6747C66.4831 18.3222 69.9231 2.57423 83.5975 2.57423Z" fill="black"/>
<path d="M119.23 34.0905C119.157 17.3561 133.58 2.5325 145.79 1.79704C150.201 1.5069 155.87 3.3823 159.179 4.71826C161.583 5.68837 166.489 4.28417 167.36 1.70801H167.835V24.5036H167.36C167.36 23.5318 162.814 2.37015 145.79 2.37015C133.216 2.37015 132.001 22.9008 132.001 34.0905C132.001 45.2803 132.368 67.4321 147.041 67.4321C154.149 67.4321 159.411 64.5443 160.775 58.7023V40.9386H154.808V40.182H177.935V40.9386H172.231V66.9089H171.767C171.767 66.9089 170.839 63.1618 166.134 63.1743C160.119 63.1902 154.447 68.0423 147.533 67.9832C129.248 67.827 119.303 50.825 119.23 34.0905V34.0905Z" fill="black"/>
<path d="M9.04052 4.24285H1.83948V3.49121H27.0651V4.24285H20.7366L38.761 49.6951C44.3972 33.5822 48.7636 21.6715 54.6395 4.24285H48.3798V3.49121H61.6991V4.24285H55.6336L33.7269 67.6575L9.04052 4.24285Z" fill="black"/>
<path d="M182.968 51.6805L182.854 3.71844H176V3H201.253V3.71844H194.402L194.554 56.3063C196.071 62.3281 198.767 66.8972 207.979 66.9652C217.19 67.0333 223.452 61.9053 225.779 54.8974V3.71844H217.938L217.938 3.02116H282.116L282.249 26.0449H281.633C280.442 11.1793 274.265 5.56122 263.462 3.92221C259.745 3.35823 255.845 3.77632 250.915 3.74073V33.1251C255.208 33.433 259.781 33.1811 262.863 30.7232C265.665 28.4882 266.457 23.3242 266.663 21.2263H267.206V46.8109H266.619C266.449 46.8109 266.224 40.3906 262.863 37.3445C259.48 34.2785 255.172 33.5247 250.915 34.2552V65.6441C256.928 65.6441 261.721 66.117 265.884 65.0573C278.538 61.836 282.992 51.9232 282.958 41.981H283.662V66.3872H233.322V65.6441H239.014V3.71844H226.717V54.8974C225.323 59.7943 220.228 67.8955 207.173 67.8402C195.034 67.7888 182.995 62.7071 182.968 51.6805V51.6805Z" fill="black"/>
</svg>
